<mxfile host="app.diagrams.net" agent="Mozilla/5.0 (Windows NT 10.0; Win64; x64; rv:137.0) Gecko/20100101 Firefox/137.0" version="26.2.12">
  <diagram name="Страница — 1" id="ehJcKKRLhl5btaAoot4_">
    <mxGraphModel dx="786" dy="826" grid="1" gridSize="10" guides="1" tooltips="1" connect="1" arrows="1" fold="1" page="1" pageScale="1" pageWidth="827" pageHeight="1169" math="0" shadow="0">
      <root>
        <mxCell id="0" />
        <mxCell id="1" parent="0" />
        <mxCell id="iY6fORPg-CDl801bKGQt-2" value="" style="endArrow=none;html=1;rounded=0;" parent="1" edge="1">
          <mxGeometry width="50" height="50" relative="1" as="geometry">
            <mxPoint x="400" y="520" as="sourcePoint" />
            <mxPoint x="400" y="120" as="targetPoint" />
          </mxGeometry>
        </mxCell>
        <mxCell id="iY6fORPg-CDl801bKGQt-3" value="" style="endArrow=none;html=1;rounded=0;" parent="1" edge="1">
          <mxGeometry width="50" height="50" relative="1" as="geometry">
            <mxPoint x="200" y="320" as="sourcePoint" />
            <mxPoint x="600" y="320" as="targetPoint" />
          </mxGeometry>
        </mxCell>
        <mxCell id="iY6fORPg-CDl801bKGQt-5" value="&lt;font style=&quot;font-size: 20px;&quot;&gt;&lt;b&gt;Матрица заинтересованных лиц&lt;/b&gt;&lt;/font&gt;" style="text;html=1;align=center;verticalAlign=middle;whiteSpace=wrap;rounded=0;" parent="1" vertex="1">
          <mxGeometry x="240" y="60" width="340" height="30" as="geometry" />
        </mxCell>
        <mxCell id="iY6fORPg-CDl801bKGQt-9" value="" style="group" parent="1" vertex="1" connectable="0">
          <mxGeometry x="560" y="200" width="170" height="20" as="geometry" />
        </mxCell>
        <mxCell id="iY6fORPg-CDl801bKGQt-7" value="" style="ellipse;whiteSpace=wrap;html=1;aspect=fixed;fillColor=#f8cecc;strokeColor=#b85450;" parent="iY6fORPg-CDl801bKGQt-9" vertex="1">
          <mxGeometry width="20" height="20" as="geometry" />
        </mxCell>
        <mxCell id="iY6fORPg-CDl801bKGQt-8" value="Люди с проблемами" style="text;html=1;align=center;verticalAlign=middle;whiteSpace=wrap;rounded=0;" parent="iY6fORPg-CDl801bKGQt-9" vertex="1">
          <mxGeometry x="32" width="138" height="20" as="geometry" />
        </mxCell>
        <mxCell id="yO1WbTJHFvnImoJUDpei-1" value="&lt;b&gt;&lt;font style=&quot;font-size: 20px;&quot;&gt;Уровень влияния&lt;/font&gt;&lt;/b&gt;" style="text;html=1;align=center;verticalAlign=middle;whiteSpace=wrap;rounded=0;rotation=-90;" vertex="1" parent="1">
          <mxGeometry x="50" y="410" width="190" height="30" as="geometry" />
        </mxCell>
        <mxCell id="yO1WbTJHFvnImoJUDpei-2" value="&lt;font style=&quot;font-size: 20px;&quot;&gt;&lt;b&gt;Уровень заинтересованности&lt;/b&gt;&lt;/font&gt;" style="text;html=1;align=center;verticalAlign=middle;whiteSpace=wrap;rounded=0;rotation=0;" vertex="1" parent="1">
          <mxGeometry x="200" y="520" width="300" height="30" as="geometry" />
        </mxCell>
        <mxCell id="yO1WbTJHFvnImoJUDpei-3" value="&lt;b&gt;&lt;font style=&quot;font-size: 20px;&quot;&gt;Низкий&lt;/font&gt;&lt;/b&gt;" style="text;html=1;align=center;verticalAlign=middle;whiteSpace=wrap;rounded=0;rotation=-90;" vertex="1" parent="1">
          <mxGeometry x="140" y="460" width="80" height="30" as="geometry" />
        </mxCell>
        <mxCell id="yO1WbTJHFvnImoJUDpei-4" value="&lt;font style=&quot;font-size: 20px;&quot;&gt;&lt;b&gt;Высокий&lt;/b&gt;&lt;/font&gt;" style="text;html=1;align=center;verticalAlign=middle;whiteSpace=wrap;rounded=0;rotation=-90;" vertex="1" parent="1">
          <mxGeometry x="130" y="155" width="100" height="30" as="geometry" />
        </mxCell>
        <mxCell id="yO1WbTJHFvnImoJUDpei-5" value="&lt;b&gt;&lt;font style=&quot;font-size: 20px;&quot;&gt;Низкий&lt;/font&gt;&lt;/b&gt;" style="text;html=1;align=center;verticalAlign=middle;whiteSpace=wrap;rounded=0;rotation=0;" vertex="1" parent="1">
          <mxGeometry x="200" y="560" width="80" height="30" as="geometry" />
        </mxCell>
        <mxCell id="yO1WbTJHFvnImoJUDpei-6" value="&lt;font style=&quot;font-size: 20px;&quot;&gt;&lt;b&gt;Высокий&lt;/b&gt;&lt;/font&gt;" style="text;html=1;align=center;verticalAlign=middle;whiteSpace=wrap;rounded=0;rotation=0;" vertex="1" parent="1">
          <mxGeometry x="500" y="560" width="100" height="30" as="geometry" />
        </mxCell>
        <mxCell id="yO1WbTJHFvnImoJUDpei-10" value="" style="group" vertex="1" connectable="0" parent="1">
          <mxGeometry x="580" y="135" width="170" height="20" as="geometry" />
        </mxCell>
        <mxCell id="yO1WbTJHFvnImoJUDpei-11" value="" style="ellipse;whiteSpace=wrap;html=1;aspect=fixed;fillColor=#f8cecc;strokeColor=#b85450;" vertex="1" parent="yO1WbTJHFvnImoJUDpei-10">
          <mxGeometry width="20" height="20" as="geometry" />
        </mxCell>
        <mxCell id="yO1WbTJHFvnImoJUDpei-12" value="Разработчики" style="text;html=1;align=center;verticalAlign=middle;whiteSpace=wrap;rounded=0;" vertex="1" parent="yO1WbTJHFvnImoJUDpei-10">
          <mxGeometry x="32" width="138" height="20" as="geometry" />
        </mxCell>
        <mxCell id="yO1WbTJHFvnImoJUDpei-13" value="" style="group" vertex="1" connectable="0" parent="1">
          <mxGeometry x="390" y="120" width="170" height="20" as="geometry" />
        </mxCell>
        <mxCell id="yO1WbTJHFvnImoJUDpei-14" value="" style="ellipse;whiteSpace=wrap;html=1;aspect=fixed;fillColor=#f8cecc;strokeColor=#b85450;" vertex="1" parent="yO1WbTJHFvnImoJUDpei-13">
          <mxGeometry width="20" height="20" as="geometry" />
        </mxCell>
        <mxCell id="yO1WbTJHFvnImoJUDpei-15" value="&lt;div&gt;Нац проект &quot;Продолжительная и активная жизнь&quot;&lt;/div&gt;" style="text;html=1;align=center;verticalAlign=middle;whiteSpace=wrap;rounded=0;" vertex="1" parent="yO1WbTJHFvnImoJUDpei-13">
          <mxGeometry x="32" width="138" height="20" as="geometry" />
        </mxCell>
        <mxCell id="yO1WbTJHFvnImoJUDpei-18" value="" style="group" vertex="1" connectable="0" parent="1">
          <mxGeometry x="390" y="160" width="170" height="20" as="geometry" />
        </mxCell>
        <mxCell id="yO1WbTJHFvnImoJUDpei-19" value="" style="ellipse;whiteSpace=wrap;html=1;aspect=fixed;fillColor=#f8cecc;strokeColor=#b85450;" vertex="1" parent="yO1WbTJHFvnImoJUDpei-18">
          <mxGeometry width="20" height="20" as="geometry" />
        </mxCell>
        <mxCell id="yO1WbTJHFvnImoJUDpei-20" value="&lt;div&gt;Нац проект &quot;Инфраструктура для жизни&quot;&lt;/div&gt;" style="text;html=1;align=center;verticalAlign=middle;whiteSpace=wrap;rounded=0;" vertex="1" parent="yO1WbTJHFvnImoJUDpei-18">
          <mxGeometry x="32" width="138" height="20" as="geometry" />
        </mxCell>
        <mxCell id="yO1WbTJHFvnImoJUDpei-22" value="" style="group" vertex="1" connectable="0" parent="1">
          <mxGeometry x="390" y="200" width="170" height="20" as="geometry" />
        </mxCell>
        <mxCell id="yO1WbTJHFvnImoJUDpei-23" value="" style="ellipse;whiteSpace=wrap;html=1;aspect=fixed;fillColor=#f8cecc;strokeColor=#b85450;" vertex="1" parent="yO1WbTJHFvnImoJUDpei-22">
          <mxGeometry width="20" height="20" as="geometry" />
        </mxCell>
        <mxCell id="yO1WbTJHFvnImoJUDpei-24" value="&lt;div&gt;Нац проект&amp;nbsp;&lt;/div&gt;&lt;div&gt;&quot;Новые технологии сбережения здоровья&quot;&lt;/div&gt;" style="text;html=1;align=center;verticalAlign=middle;whiteSpace=wrap;rounded=0;" vertex="1" parent="yO1WbTJHFvnImoJUDpei-22">
          <mxGeometry x="32" width="138" height="20" as="geometry" />
        </mxCell>
        <mxCell id="yO1WbTJHFvnImoJUDpei-25" value="" style="group" vertex="1" connectable="0" parent="1">
          <mxGeometry x="570" y="170" width="170" height="20" as="geometry" />
        </mxCell>
        <mxCell id="yO1WbTJHFvnImoJUDpei-26" value="" style="ellipse;whiteSpace=wrap;html=1;aspect=fixed;fillColor=#f8cecc;strokeColor=#b85450;" vertex="1" parent="yO1WbTJHFvnImoJUDpei-25">
          <mxGeometry width="20" height="20" as="geometry" />
        </mxCell>
        <mxCell id="yO1WbTJHFvnImoJUDpei-27" value="Психологические службы и специалисты" style="text;html=1;align=center;verticalAlign=middle;whiteSpace=wrap;rounded=0;" vertex="1" parent="yO1WbTJHFvnImoJUDpei-25">
          <mxGeometry x="32" width="138" height="20" as="geometry" />
        </mxCell>
        <mxCell id="yO1WbTJHFvnImoJUDpei-28" value="" style="group" vertex="1" connectable="0" parent="1">
          <mxGeometry x="430" y="270" width="110" height="20" as="geometry" />
        </mxCell>
        <mxCell id="yO1WbTJHFvnImoJUDpei-29" value="" style="ellipse;whiteSpace=wrap;html=1;aspect=fixed;fillColor=#f8cecc;strokeColor=#b85450;" vertex="1" parent="yO1WbTJHFvnImoJUDpei-28">
          <mxGeometry width="20" height="20" as="geometry" />
        </mxCell>
        <mxCell id="yO1WbTJHFvnImoJUDpei-30" value="САФУ" style="text;html=1;align=center;verticalAlign=middle;whiteSpace=wrap;rounded=0;" vertex="1" parent="yO1WbTJHFvnImoJUDpei-28">
          <mxGeometry x="20.705882352941178" width="89.29411764705883" height="20" as="geometry" />
        </mxCell>
        <mxCell id="yO1WbTJHFvnImoJUDpei-31" value="" style="group" vertex="1" connectable="0" parent="1">
          <mxGeometry x="370" y="330" width="170" height="20" as="geometry" />
        </mxCell>
        <mxCell id="yO1WbTJHFvnImoJUDpei-32" value="" style="ellipse;whiteSpace=wrap;html=1;aspect=fixed;fillColor=#f8cecc;strokeColor=#b85450;" vertex="1" parent="yO1WbTJHFvnImoJUDpei-31">
          <mxGeometry width="20" height="20" as="geometry" />
        </mxCell>
        <mxCell id="yO1WbTJHFvnImoJUDpei-33" value="Инвесторы" style="text;html=1;align=center;verticalAlign=middle;whiteSpace=wrap;rounded=0;" vertex="1" parent="yO1WbTJHFvnImoJUDpei-31">
          <mxGeometry x="32" width="138" height="20" as="geometry" />
        </mxCell>
        <mxCell id="yO1WbTJHFvnImoJUDpei-34" value="" style="group" vertex="1" connectable="0" parent="1">
          <mxGeometry x="540" y="360" width="170" height="20" as="geometry" />
        </mxCell>
        <mxCell id="yO1WbTJHFvnImoJUDpei-35" value="" style="ellipse;whiteSpace=wrap;html=1;aspect=fixed;fillColor=#f8cecc;strokeColor=#b85450;" vertex="1" parent="yO1WbTJHFvnImoJUDpei-34">
          <mxGeometry width="20" height="20" as="geometry" />
        </mxCell>
        <mxCell id="yO1WbTJHFvnImoJUDpei-36" value="СМИ" style="text;html=1;align=center;verticalAlign=middle;whiteSpace=wrap;rounded=0;" vertex="1" parent="yO1WbTJHFvnImoJUDpei-34">
          <mxGeometry x="32" width="138" height="20" as="geometry" />
        </mxCell>
        <mxCell id="yO1WbTJHFvnImoJUDpei-39" value="" style="group" vertex="1" connectable="0" parent="1">
          <mxGeometry x="350" y="470" width="170" height="20" as="geometry" />
        </mxCell>
        <mxCell id="yO1WbTJHFvnImoJUDpei-40" value="" style="ellipse;whiteSpace=wrap;html=1;aspect=fixed;fillColor=#f8cecc;strokeColor=#b85450;" vertex="1" parent="yO1WbTJHFvnImoJUDpei-39">
          <mxGeometry width="20" height="20" as="geometry" />
        </mxCell>
        <mxCell id="yO1WbTJHFvnImoJUDpei-41" value="Простые люди" style="text;html=1;align=center;verticalAlign=middle;whiteSpace=wrap;rounded=0;" vertex="1" parent="yO1WbTJHFvnImoJUDpei-39">
          <mxGeometry x="32" width="138" height="20" as="geometry" />
        </mxCell>
      </root>
    </mxGraphModel>
  </diagram>
</mxfile>
